<svg width="100" height="100" viewBox="0 0 100 100" fill="none" xmlns="http://www.w3.org/2000/svg">
<mask id="mask0_273_81" style="mask-type:alpha" maskUnits="userSpaceOnUse" x="0" y="0" width="100" height="100">
<rect width="100" height="100" fill="#0f1517"/>
</mask>
<path d="M81.6667 87.5L55.4167 61.25C53.3333 62.9167 50.9375 64.2361 48.2292 65.2083C45.5208 66.1806 42.6389 66.6667 39.5833 66.6667C32.0139 66.6667 25.6083 64.0458 20.3667 58.8042C15.1222 53.5597 12.5 47.1528 12.5 39.5833C12.5 32.0139 15.1222 25.6069 20.3667 20.3625C25.6083 15.1208 32.0139 12.5 39.5833 12.5C47.1528 12.5 53.5597 15.1208 58.8042 20.3625C64.0458 25.6069 66.6667 32.0139 66.6667 39.5833C66.6667 42.6389 66.1806 45.5208 65.2083 48.2292C64.2361 50.9375 62.9167 53.3333 61.25 55.4167L87.5 81.6667L81.6667 87.5ZM39.5833 58.3333C44.7917 58.3333 49.2194 56.5111 52.8667 52.8667C56.5111 49.2194 58.3333 44.7917 58.3333 39.5833C58.3333 34.375 56.5111 29.9472 52.8667 26.3C49.2194 22.6556 44.7917 20.8333 39.5833 20.8333C34.375 20.8333 29.9472 22.6556 26.3 26.3C22.6556 29.9472 20.8333 34.375 20.8333 39.5833C20.8333 44.7917 22.6556 49.2194 26.3 52.8667C29.9472 56.5111 34.375 58.3333 39.5833 58.3333Z" fill="#0f1517"/>
</svg>
